<svg width="121" height="109" viewBox="0 0 121 109" fill="none" xmlns="http://www.w3.org/2000/svg">
<path d="M108.577 88.2093H50.1709L60.1907 41.24H118.589L108.577 88.2093Z" stroke="#3F3F3F" stroke-width="2" stroke-miterlimit="10"/>
<path d="M104.953 88.2093H46.5547L56.5665 41.24H114.973L104.953 88.2093Z" fill="white" stroke="#3F3F3F" stroke-width="2" stroke-miterlimit="10"/>
<path d="M93.8341 89.2964H67.4624V107.73H93.8341V89.2964Z" stroke="#3F3F3F" stroke-width="2" stroke-miterlimit="10"/>
<path d="M69.5332 97.811H77.8883C79.8079 97.811 81.6557 98.5808 83.1133 99.9774L84.1089 100.938C85.8771 102.644 86.8966 105.119 86.8966 107.73H75.1883" fill="white"/>
<path d="M69.5332 97.811H77.8883C79.8079 97.811 81.6557 98.5808 83.1133 99.9774L84.1089 100.938C85.8771 102.644 86.8966 105.119 86.8966 107.73H75.1883" stroke="#3F3F3F" stroke-width="2" stroke-miterlimit="10"/>
<path d="M15.9933 29.2258L17.0845 39.4545L18.5102 42.2794L15.9854 54.8014L34.2249 60.6895L35.7621 54.1983L43.6792 55.4918C44.3801 55.6029 45.089 55.4283 45.6704 54.9919C46.3474 54.484 46.8014 53.6825 46.9129 52.7779L48.0519 43.6443L48.7289 43.6919C50.059 43.7872 51.1184 42.4699 50.8874 41.0018L48.9519 28.8131C48.9678 28.8131 34.432 23.2901 15.9933 29.2258Z" fill="white" stroke="#3F3F3F" stroke-width="2" stroke-miterlimit="10"/>
<path d="M14.9341 26.4485L17.0846 39.4545C17.0846 39.4545 17.8572 45.7155 22.5166 47.6756L24.9857 39.4545L24.1096 38.9784C23.1698 38.4626 22.6361 37.312 22.8113 36.1534L22.9786 35.0345C23.2255 33.4237 24.699 32.4476 26.0769 32.9713L27.6141 26.8135L14.9341 26.4485Z" fill="white" stroke="#3F3F3F" stroke-width="2" stroke-miterlimit="10"/>
<path d="M51.7082 21.9492C52.3136 11.1968 44.9142 1.91239 35.1732 1.22995C25.4401 0.539577 17.0451 8.70506 16.4398 19.4575L14.0981 20.6001V25.5121L55.149 29.4401V25.5121L51.7082 21.9492Z" fill="white" stroke="#3F3F3F" stroke-width="2" stroke-miterlimit="10"/>
<path d="M45.9496 12.9662C43.9504 8.46689 39.8803 5.24514 35.0377 4.90391C29.6296 4.52302 24.7949 7.81619 22.5249 12.8472" fill="white"/>
<path d="M45.9496 12.9662C43.9504 8.46689 39.8803 5.24514 35.0377 4.90391C29.6296 4.52302 24.7949 7.81619 22.5249 12.8472" stroke="#3F3F3F" stroke-width="2" stroke-miterlimit="10"/>
<path d="M12.1465 64.7047V52.2065L38.1996 58.4596V64.7047H12.1465Z" fill="white" stroke="#3F3F3F" stroke-width="2" stroke-miterlimit="10"/>
<path d="M1.19482 109V78.8059C1.19482 69.712 7.78973 62.3401 15.9219 62.3401H39.7209C42.0148 62.3401 44.2688 63.1654 46.0529 64.7762C48.7849 67.2441 52.0983 71.7752 52.0983 79.2265V94.0021H75.2043V107.722H45.4635C41.4492 107.722 38.1916 104.08 38.1916 99.5966V81.3373" fill="white"/>
<path d="M1.19482 109V78.8059C1.19482 69.712 7.78973 62.3401 15.9219 62.3401H39.7209C42.0148 62.3401 44.2688 63.1654 46.0529 64.7762C48.7849 67.2441 52.0983 71.7752 52.0983 79.2265V94.0021H75.2043V107.722H45.4635C41.4492 107.722 38.1916 104.08 38.1916 99.5966V81.3373" stroke="#3F3F3F" stroke-width="2" stroke-miterlimit="10"/>
<path d="M50.8796 38.9626L35.6269 37.4786L35.0932 34.7013L23.584 31.9953V31.1621L51.3654 33.7887C51.8354 33.8363 52.2017 34.2728 52.2097 34.8044L52.2416 37.5501C52.2575 38.3753 51.6203 39.034 50.8796 38.9626Z" stroke="#3F3F3F" stroke-width="2" stroke-miterlimit="10"/>
<path d="M84.6348 51.3574H98.0635" stroke="#3F3F3F" stroke-width="2" stroke-miterlimit="10"/>
<path d="M84.6348 60.5942H105.335" stroke="#3F3F3F" stroke-width="2" stroke-miterlimit="10"/>
<path d="M84.6348 55.8171H105.335" stroke="#3F3F3F" stroke-width="2" stroke-miterlimit="10"/>
<path d="M71.8035 71.7514C71.1743 75.0208 70.2026 77.1236 69.1034 77.1236C67.2078 77.1236 65.6626 70.815 65.6626 63.0304C65.6626 55.2459 67.1998 48.9373 69.1034 48.9373C70.1946 48.9373 71.1743 51.0401 71.8035 54.3095" stroke="#3F3F3F" stroke-width="2" stroke-miterlimit="10" stroke-linecap="round" stroke-linejoin="round"/>
<path d="M64.3803 69.2597C60.8997 70.4342 58.2872 70.5453 57.7376 69.3232C56.8933 67.4425 61.29 63.094 67.5663 59.6183C73.8426 56.1426 79.6171 54.8491 80.4693 56.7377C81.0348 57.9915 79.2667 60.3483 76.1604 62.8083" stroke="#3F3F3F" stroke-width="2" stroke-miterlimit="10" stroke-linecap="round" stroke-linejoin="round"/>
<path d="M64.3803 56.7932C60.8997 55.6188 58.2872 55.5077 57.7376 56.7297C56.8933 58.6104 61.29 62.959 67.5663 66.4346C73.8426 69.9103 79.6171 71.2038 80.4693 69.3152C80.9074 68.3471 79.9516 66.7282 78.0799 64.9111" stroke="#3F3F3F" stroke-width="2" stroke-miterlimit="10" stroke-linecap="round" stroke-linejoin="round"/>
<path d="M71.8035 73.0686C72.4589 73.0686 72.9902 72.4789 72.9902 71.7513C72.9902 71.0238 72.4589 70.4341 71.8035 70.4341C71.148 70.4341 70.6167 71.0238 70.6167 71.7513C70.6167 72.4789 71.148 73.0686 71.8035 73.0686Z" fill="white" stroke="#3F3F3F" stroke-width="2" stroke-miterlimit="10" stroke-linecap="round" stroke-linejoin="round"/>
<path d="M65.1202 56.7933C65.1202 57.2456 64.7859 57.6186 64.3799 57.6186C63.974 57.6186 63.6396 57.2456 63.6396 56.7933C63.6396 56.341 63.974 55.968 64.3799 55.968C64.7859 55.968 65.1202 56.341 65.1202 56.7933Z" fill="white" stroke="#3F3F3F" stroke-width="2" stroke-miterlimit="10" stroke-linecap="round" stroke-linejoin="round"/>
<path d="M76.009 63.9431C76.55 63.9431 76.9887 63.4564 76.9887 62.8559C76.9887 62.2555 76.55 61.7688 76.009 61.7688C75.4679 61.7688 75.0293 62.2555 75.0293 62.8559C75.0293 63.4564 75.4679 63.9431 76.009 63.9431Z" fill="white" stroke="#3F3F3F" stroke-width="2" stroke-miterlimit="10" stroke-linecap="round" stroke-linejoin="round"/>
<path d="M73.293 61.5149C73.1417 60.9991 72.831 60.5864 72.4487 60.3246C72.3452 59.8326 72.0903 59.3882 71.6921 59.0628C71.2938 58.7454 70.8319 58.6105 70.3779 58.6502C70.0354 58.3249 69.5893 58.1265 69.0955 58.1265C68.6097 58.1265 68.1636 58.3249 67.8132 58.6502C67.3592 58.6105 66.8972 58.7454 66.499 59.0628C66.1007 59.3803 65.8459 59.8326 65.7423 60.3246C65.36 60.5864 65.0494 60.9991 64.898 61.5149C64.7467 62.0307 64.7786 62.5623 64.9538 63.0305C64.7786 63.4987 64.7467 64.0304 64.898 64.5462C65.0494 65.062 65.36 65.4746 65.7423 65.7365C65.8459 66.2285 66.1007 66.6728 66.499 66.9982C66.8972 67.3156 67.3592 67.4505 67.8132 67.4108C68.1557 67.7362 68.6017 67.9346 69.0955 67.9346C69.5814 67.9346 70.0274 67.7362 70.3779 67.4108C70.8319 67.4505 71.2938 67.3156 71.6921 66.9982C72.0903 66.6808 72.3452 66.2285 72.4487 65.7365C72.831 65.4746 73.1417 65.062 73.293 64.5462C73.4443 64.0304 73.4125 63.4987 73.2373 63.0305C73.4125 62.5623 73.4443 62.0307 73.293 61.5149Z" fill="white" stroke="#3F3F3F" stroke-width="2" stroke-miterlimit="10" stroke-linecap="round" stroke-linejoin="round"/>
<path d="M69.1033 64.4588C69.8159 64.4588 70.3936 63.8193 70.3936 63.0304C70.3936 62.2416 69.8159 61.6021 69.1033 61.6021C68.3907 61.6021 67.813 62.2416 67.813 63.0304C67.813 63.8193 68.3907 64.4588 69.1033 64.4588Z" fill="white" stroke="#3F3F3F" stroke-width="2" stroke-miterlimit="10" stroke-linecap="round" stroke-linejoin="round"/>
<path d="M87.2793 71.4657L90.6883 77.1236L99.123 66.7124" stroke="#3F3F3F" stroke-width="2" stroke-miterlimit="10"/>
</svg>
