<svg width="120" height="120" viewBox="0 0 120 120" fill="none" xmlns="http://www.w3.org/2000/svg">
<g clip-path="url(#clip0_199_3109)">
<path d="M75.3043 1.1875V45.2909H44.6875V8.98536C44.6875 8.97745 44.6875 8.96953 44.6957 8.96953L51.9079 1.19542C51.9161 1.1875 51.9161 1.1875 51.9243 1.1875H75.3043Z" fill="white" stroke="#3F3F3F" stroke-width="2" stroke-miterlimit="10"/>
<path d="M51.916 1.24285V8.97738H44.7449C44.7285 8.97738 44.712 8.95363 44.7285 8.9378L51.8749 1.22702C51.8913 1.21118 51.916 1.22702 51.916 1.24285Z" fill="white" stroke="#3F3F3F" stroke-width="2" stroke-miterlimit="10"/>
<path d="M49.5723 16.5061H70.4193" stroke="#3F3F3F" stroke-width="2" stroke-miterlimit="10"/>
<path d="M52.7056 21.6914H67.2862" stroke="#3F3F3F" stroke-width="2" stroke-miterlimit="10"/>
<path d="M49.5723 26.877H70.4193" stroke="#3F3F3F" stroke-width="2" stroke-miterlimit="10"/>
<path d="M54.0874 32.0623H65.9131" stroke="#3F3F3F" stroke-width="2" stroke-miterlimit="10"/>
<path d="M71.6611 38.6251C71.6611 40.3509 70.3617 41.7522 68.7663 41.7522C67.1709 41.7522 65.8716 40.3509 65.8716 38.6251C65.8716 36.8993 67.1709 35.498 68.7663 35.498C70.3617 35.498 71.6611 36.8993 71.6611 38.6251Z" fill="white" stroke="#3F3F3F" stroke-width="2" stroke-miterlimit="10"/>
<path d="M12.6068 61.053L13.8157 79.8391L19.712 90.5741C20.6742 92.3078 22.4176 93.3845 24.2926 93.3845H45.6989V83.2829L25.3453 83.3224C21.439 74.5033 16.3979 65.0984 13.9143 60.5859C13.5361 59.8893 12.5574 60.2455 12.6068 61.053Z" fill="white" stroke="#3F3F3F" stroke-width="2" stroke-miterlimit="10"/>
<path d="M11.7326 57.3091H23.106V47.6904H11.7326L11.7326 57.3091Z" stroke="#3F3F3F" stroke-width="2" stroke-miterlimit="10"/>
<path d="M34.7123 111.965L34.3175 81.2246C34.3175 81.2246 31.209 57.3639 24.6794 55.3056L11.9491 53.9043C11.9491 53.9043 1.02805 51.8381 1.24187 72.1838L1.77641 104.848V111.973H9.16128H34.7123V111.965Z" fill="white" stroke="#3F3F3F" stroke-width="2" stroke-miterlimit="10"/>
<path d="M5.31258 42.6073C6.83396 45.5839 10.1563 49.4947 17.2451 50.706C17.903 50.8247 18.5938 50.8247 19.2517 50.706C31.1678 48.6714 32.4261 39.0131 32.4261 39.0131V19.9895H4.0708V28.2861L5.31258 42.6073Z" fill="white" stroke="#3F3F3F" stroke-width="2" stroke-miterlimit="10"/>
<path d="M9.60524 33.0124L10.6908 25.0403L35.3207 23.6154C29.2352 16.8229 43.3881 6.19881 17.4177 12.7617C5.60853 15.7383 3.02629 14.2817 1.94076 22.6416L1.76807 38.2927L1.78451 38.3719C2.23682 41.4119 4.21872 43.5415 6.46379 43.5415H7.46708C7.46708 43.5415 6.44734 38.7282 6.398 36.8678C6.29932 33.0915 9.60524 33.0124 9.60524 33.0124Z" fill="white" stroke="#3F3F3F" stroke-width="2" stroke-miterlimit="10"/>
<path d="M6.55453 65.4704L7.76342 84.2565L13.6598 94.9994C14.622 96.7331 16.3654 97.8098 18.2404 97.8098H39.6466V87.7082L19.293 87.7478C15.395 78.9287 10.3539 69.5237 7.87032 65.0113C7.48381 64.3146 6.50519 64.6629 6.55453 65.4704Z" fill="white" stroke="#3F3F3F" stroke-width="2" stroke-miterlimit="10"/>
<path d="M47.1138 85.1829C47.1138 85.1829 50.9542 81.9925 52.8703 78.0817C53.3967 77.0129 54.548 76.4984 55.5842 76.9813L55.7486 77.0604C56.645 77.4721 57.1713 78.5013 56.9904 79.5383C56.6944 81.3117 56.0776 83.9321 54.9509 85.1908H57.8868C59.4246 85.1908 60.6664 86.5366 60.6664 88.1912V92.2999C60.6664 93.9545 59.4246 95.3003 57.8868 95.3003H47.1138V85.1829Z" fill="white" stroke="#3F3F3F" stroke-width="2" stroke-miterlimit="10"/>
<path d="M39.6465 88.397C39.6465 88.397 43.4869 85.2066 45.4031 81.2958C45.9294 80.2271 47.0807 79.7125 48.1169 80.1954L48.2814 80.2746C49.1777 80.6862 49.7041 81.7154 49.5231 82.7524C49.2271 84.5258 48.6103 87.1462 47.4837 88.4049H50.4195C51.9573 88.4049 53.1991 89.7507 53.1991 91.4053V95.514C53.1991 97.1686 51.9573 98.5144 50.4195 98.5144H39.6465V88.397Z" fill="white" stroke="#3F3F3F" stroke-width="2" stroke-miterlimit="10"/>
<path d="M23.2483 61.4885L4.62988 56.4852L6.0608 50.2944L24.6792 55.2977L23.2483 61.4885Z" fill="white" stroke="#3F3F3F" stroke-width="2" stroke-miterlimit="10"/>
<path d="M20.9541 41.8868C20.9541 41.8868 23.1005 43.5414 27.6317 41.2297Z" fill="white"/>
<path d="M20.9541 41.8868C20.9541 41.8868 23.1005 43.5414 27.6317 41.2297" stroke="#3F3F3F" stroke-width="2" stroke-miterlimit="10"/>
<path d="M102.574 61.8525L101.365 80.6386L95.4688 91.3736C94.5066 93.1073 92.7632 94.184 90.8882 94.184H69.482L61.5708 85.9665L81.9244 86.0061C93.7336 75.3028 98.783 65.8979 101.258 61.3854C101.645 60.6967 102.632 61.045 102.574 61.8525Z" fill="white" stroke="#3F3F3F" stroke-width="2" stroke-miterlimit="10"/>
<path d="M108.265 49.4392H96.8916V59.0579H108.265V49.4392Z" stroke="#3F3F3F" stroke-width="2" stroke-miterlimit="10"/>
<path d="M85.2876 113.714L85.6823 82.9741C85.6823 82.9741 88.7909 59.1134 95.3205 57.0551L108.051 55.6539C108.051 55.6539 118.972 53.5876 118.758 73.9333L118.223 106.597V113.722H110.839H85.2876V113.714Z" fill="white" stroke="#3F3F3F" stroke-width="2" stroke-miterlimit="10"/>
<path d="M114.679 44.3568C113.158 47.3334 109.836 51.2442 102.747 52.4555C102.089 52.5742 101.398 52.5742 100.74 52.4555C88.8241 50.4209 87.5659 40.7626 87.5659 40.7626V21.739H115.929V30.0356L114.679 44.3568Z" fill="white" stroke="#3F3F3F" stroke-width="2" stroke-miterlimit="10"/>
<path d="M110.386 34.7618L109.301 26.7898H86.2744C80.3452 15.1445 82.4669 12.8724 99.0376 13.949C111.143 14.7407 119.515 15.9757 118.051 24.3911L118.223 40.0501L118.207 40.1293C117.755 43.1693 115.773 45.2988 113.536 45.2988H112.533C112.533 45.2988 113.552 40.4855 113.602 38.6251C113.692 34.841 110.386 34.7618 110.386 34.7618Z" fill="white" stroke="#3F3F3F" stroke-width="2" stroke-miterlimit="10"/>
<path d="M113.437 71.2732L112.228 90.0593L106.332 100.794C105.37 102.528 103.626 103.605 101.751 103.605H80.3452V93.503L100.699 93.5426C104.605 84.7235 109.646 75.3186 112.13 70.8061C112.508 70.1173 113.495 70.4657 113.437 71.2732Z" fill="white" stroke="#3F3F3F" stroke-width="2" stroke-miterlimit="10"/>
<path d="M68.0756 85.9822C68.0756 85.9822 64.2351 82.7918 62.319 78.881C61.7927 77.8123 60.6414 77.2977 59.6052 77.7806L59.4407 77.8598C58.5443 78.2714 58.018 79.3006 58.1989 80.3377C58.495 82.111 59.1118 84.7314 60.2384 85.9901H57.3026C55.7647 85.9901 54.5229 87.3359 54.5229 88.9905V93.0992C54.5229 94.7538 55.7647 96.0996 57.3026 96.0996H68.0756V85.9822Z" fill="white" stroke="#3F3F3F" stroke-width="2" stroke-miterlimit="10"/>
<path d="M80.3451 94.1997C80.3451 94.1997 76.5046 91.0093 74.5885 87.0985C74.0622 86.0298 72.9109 85.5152 71.8747 85.9981L71.7102 86.0773C70.8139 86.489 70.2875 87.5181 70.4685 88.5552C70.7645 90.3285 71.3813 92.9489 72.5079 94.2076H69.5721C68.0343 94.2076 66.7925 95.5535 66.7925 97.208V101.317C66.7925 102.971 68.0343 104.317 69.5721 104.317H80.3451V94.1997Z" fill="white" stroke="#3F3F3F" stroke-width="2" stroke-miterlimit="10"/>
<path d="M96.7517 63.2457L115.37 58.2345L113.939 52.0437L95.3208 57.0549L96.7517 63.2457Z" fill="white" stroke="#3F3F3F" stroke-width="2" stroke-miterlimit="10"/>
<path d="M99.038 43.6363C99.038 43.6363 96.8916 45.2909 92.3604 42.9792Z" fill="white"/>
<path d="M99.038 43.6363C99.038 43.6363 96.8916 45.2909 92.3604 42.9792" stroke="#3F3F3F" stroke-width="2" stroke-miterlimit="10"/>
<path d="M118.232 105.671H1.77637V118.812H118.232V105.671Z" fill="white" stroke="#3F3F3F" stroke-width="2" stroke-miterlimit="10"/>
<path d="M89.3421 37.7386C90.9953 37.7386 92.3355 36.296 92.3355 34.5165C92.3355 32.737 90.9953 31.2944 89.3421 31.2944C87.6888 31.2944 86.3486 32.737 86.3486 34.5165C86.3486 36.296 87.6888 37.7386 89.3421 37.7386Z" fill="white" stroke="#3F3F3F" stroke-width="2" stroke-miterlimit="10"/>
<path d="M101.743 38.166C103.397 38.166 104.737 36.7235 104.737 34.944C104.737 33.1645 103.397 31.7219 101.743 31.7219C100.09 31.7219 98.75 33.1645 98.75 34.944C98.75 36.7235 100.09 38.166 101.743 38.166Z" fill="white" stroke="#3F3F3F" stroke-width="2" stroke-miterlimit="10"/>
<path d="M92.9771 34.9438H97.9442" stroke="#3F3F3F" stroke-width="2" stroke-miterlimit="10"/>
<path d="M95.6992 73.5059L103.364 74.0125" stroke="#3F3F3F" stroke-width="2" stroke-miterlimit="10"/>
</g>
<defs>
<clipPath id="clip0_199_3109">
<rect width="120" height="120" fill="white"/>
</clipPath>
</defs>
</svg>
