<svg width="120" height="120" viewBox="0 0 120 120" fill="none" xmlns="http://www.w3.org/2000/svg">
<g clip-path="url(#clip0_199_3153)">
<path d="M119.034 8.32739H35.4087V62.0166H119.034V8.32739Z" fill="white" stroke="#3F3F3F" stroke-width="2" stroke-miterlimit="10" stroke-linecap="round" stroke-linejoin="round"/>
<path d="M78.5933 94.3842C74.6891 80.7756 53.4993 77.1545 53.4993 77.1545V63.6047H26.6014V77.1545C26.6014 77.1545 5.41171 80.7756 1.50749 94.3842C1.10805 95.783 0.966309 97.2406 0.966309 98.6982V119.02H79.1345V98.6982C79.1345 97.2406 78.9927 95.783 78.5933 94.3842Z" fill="white" stroke="#3F3F3F" stroke-width="2" stroke-miterlimit="10" stroke-linecap="round" stroke-linejoin="round"/>
<path d="M26.6016 77.1545C26.6016 77.1545 23.0839 78.0173 14.9727 79.5403L20.7839 93.809H26.5951L23.348 99.4041L40.0473 116.908V99.7309L26.6016 77.1545Z" fill="white" stroke="#3F3F3F" stroke-width="2" stroke-miterlimit="10" stroke-linecap="round" stroke-linejoin="round"/>
<path d="M53.4994 77.1545C53.4994 77.1545 57.0171 78.0173 65.1283 79.5403L59.3171 93.809H53.5059L56.7529 99.4041L40.0537 116.908V99.7309L53.4994 77.1545Z" fill="white" stroke="#3F3F3F" stroke-width="2" stroke-miterlimit="10" stroke-linecap="round" stroke-linejoin="round"/>
<path d="M59.0143 41.3226V35.6883L40.6206 26.8643L21.0866 35.6883V41.3226C13.2395 41.3226 13.5552 52.467 20.7323 52.467V54.8462C20.7323 67.7815 30.3833 74.344 40.0537 74.3244C49.724 74.344 59.375 67.7815 59.375 54.8462V52.467C66.5457 52.467 66.8614 41.3226 59.0143 41.3226Z" fill="white" stroke="#3F3F3F" stroke-width="2" stroke-miterlimit="10" stroke-linecap="round" stroke-linejoin="round"/>
<path d="M38.3014 41.7083C38.7266 43.4208 38.9586 45.2509 38.8362 47.0157C38.6429 49.7479 36.8325 51.0682 35.937 53.4017C35.2219 55.258 36.4717 56.8006 38.1597 57.3954C40.1955 58.1078 43.5908 57.6764 44.3768 55.2842" fill="white"/>
<path d="M38.3014 41.7083C38.7266 43.4208 38.9586 45.2509 38.8362 47.0157C38.6429 49.7479 36.8325 51.0682 35.937 53.4017C35.2219 55.258 36.4717 56.8006 38.1597 57.3954C40.1955 58.1078 43.5908 57.6764 44.3768 55.2842" stroke="#3F3F3F" stroke-width="2" stroke-miterlimit="10" stroke-linecap="round" stroke-linejoin="round"/>
<path d="M21.2477 39.6295C13.1236 17.9944 31.0921 9.5756 40.2921 13.9615C63.2793 6.88265 62.3451 32.518 59.3558 39.6426C38.7008 47.1397 30.9696 20.5501 21.2477 39.6295Z" fill="white" stroke="#3F3F3F" stroke-width="2" stroke-miterlimit="10" stroke-linecap="round" stroke-linejoin="round"/>
<path d="M33.7719 46.5777C33.7719 46.5777 31.9551 44.4534 26.9492 46.5777Z" fill="white"/>
<path d="M33.7719 46.5777C33.7719 46.5777 31.9551 44.4534 26.9492 46.5777" stroke="#3F3F3F" stroke-width="2" stroke-miterlimit="10" stroke-linecap="round" stroke-linejoin="round"/>
<path d="M46.3286 46.5777C46.3286 46.5777 48.1454 44.4534 53.1513 46.5777Z" fill="white"/>
<path d="M46.3286 46.5777C46.3286 46.5777 48.1454 44.4534 53.1513 46.5777" stroke="#3F3F3F" stroke-width="2" stroke-miterlimit="10" stroke-linecap="round" stroke-linejoin="round"/>
<path d="M18.007 56.0815H15.7134C15.1078 56.0815 14.6182 55.5847 14.6182 54.9703V37.989H19.1022V54.9703C19.0958 55.5847 18.6061 56.0815 18.007 56.0815Z" fill="white" stroke="#3F3F3F" stroke-width="2" stroke-miterlimit="10" stroke-linecap="round" stroke-linejoin="round"/>
<path d="M64.3873 56.0815H62.0938C61.4882 56.0815 60.9985 55.5847 60.9985 54.9703V37.989H65.4826V54.9703C65.4826 55.5847 64.993 56.0815 64.3873 56.0815Z" fill="white" stroke="#3F3F3F" stroke-width="2" stroke-miterlimit="10" stroke-linecap="round" stroke-linejoin="round"/>
<path d="M66.3074 37.5052H13.7937C12.4665 37.5052 11.3906 36.4137 11.3906 35.0672V34.3482C11.3906 33.0017 12.4665 31.9102 13.7937 31.9102H66.3074C67.6346 31.9102 68.7105 33.0017 68.7105 34.3482V35.0672C68.7105 36.4137 67.6346 37.5052 66.3074 37.5052Z" fill="white" stroke="#3F3F3F" stroke-width="2" stroke-miterlimit="10" stroke-linecap="round" stroke-linejoin="round"/>
<path d="M49.3119 4.62109H30.783C15.8426 4.62109 14.4961 31.9102 14.4961 31.9102H65.5989C65.5989 31.9036 64.2588 4.62109 49.3119 4.62109Z" fill="white" stroke="#3F3F3F" stroke-width="2" stroke-miterlimit="10" stroke-linecap="round" stroke-linejoin="round"/>
<path d="M34.5195 3.40544V22.4653C34.5195 25.4524 36.7422 28.0604 39.6801 28.2565C42.9014 28.4656 45.575 25.8838 45.575 22.6614V3.40544C45.575 2.0655 44.5056 0.980469 43.1848 0.980469H36.9097C35.589 0.980469 34.5195 2.0655 34.5195 3.40544Z" fill="white" stroke="#3F3F3F" stroke-width="2" stroke-miterlimit="10" stroke-linecap="round" stroke-linejoin="round"/>
<path d="M21.2607 9.71289C21.2607 9.71289 22.6846 15.7067 28.863 18.2624V31.9036" fill="white"/>
<path d="M21.2607 9.71289C21.2607 9.71289 22.6846 15.7067 28.863 18.2624V31.9036" stroke="#3F3F3F" stroke-width="2" stroke-miterlimit="10" stroke-linecap="round" stroke-linejoin="round"/>
<path d="M58.8406 9.71289C58.8406 9.71289 57.4167 15.7067 51.2383 18.2624V31.9036" fill="white"/>
<path d="M58.8406 9.71289C58.8406 9.71289 57.4167 15.7067 51.2383 18.2624V31.9036" stroke="#3F3F3F" stroke-width="2" stroke-miterlimit="10" stroke-linecap="round" stroke-linejoin="round"/>
<path d="M54.8006 50.5976H44.6084L39.3513 48.1727L34.5193 50.5976H24.0372C21.3055 50.5976 19.0957 48.3557 19.0957 45.5843V44.0548C19.0957 42.7606 20.133 41.7083 21.4086 41.7083H57.4163C58.6275 41.7083 59.6133 42.7018 59.6133 43.9371V45.7215C59.6068 48.408 57.455 50.5976 54.8006 50.5976Z" stroke="#3F3F3F" stroke-width="2" stroke-miterlimit="10"/>
<path d="M55.1424 67.141L41.6452 69.9777C40.5886 70.1999 39.5062 70.1999 38.4496 69.9842L24.656 67.141C22.5235 67.141 20.7969 65.3892 20.7969 63.2257V56.6044L39.358 54.5847L58.8405 56.6044V63.3891C58.8405 65.4611 57.1847 67.141 55.1424 67.141Z" fill="white" stroke="#3F3F3F" stroke-width="2" stroke-miterlimit="10" stroke-linecap="round" stroke-linejoin="round"/>
<path d="M116.308 104.411H83.0388C81.9887 104.411 81.3766 103.195 81.9887 102.326L93.0893 86.5015L93.231 68.592H105.91L106.2 86.5015L117.314 102.43C117.893 103.261 117.307 104.411 116.308 104.411Z" stroke="#3F3F3F" stroke-width="2" stroke-miterlimit="10"/>
<path d="M93.1797 79.5469H105.33" stroke="#3F3F3F" stroke-width="2" stroke-miterlimit="10"/>
<path d="M94.6485 98.5086C95.2178 98.5086 95.6793 98.0404 95.6793 97.4628C95.6793 96.8852 95.2178 96.417 94.6485 96.417C94.0792 96.417 93.6177 96.8852 93.6177 97.4628C93.6177 98.0404 94.0792 98.5086 94.6485 98.5086Z" stroke="#3F3F3F" stroke-width="2" stroke-miterlimit="10"/>
<path d="M101.774 93.4038C102.952 93.4038 103.907 92.4323 103.907 91.2338C103.907 90.0353 102.952 89.0637 101.774 89.0637C100.596 89.0637 99.6416 90.0353 99.6416 91.2338C99.6416 92.4323 100.596 93.4038 101.774 93.4038Z" stroke="#3F3F3F" stroke-width="2" stroke-miterlimit="10"/>
<path d="M110.265 34.649C110.265 43.8718 92.503 52.6958 92.503 52.6958C92.503 52.6958 73.7808 43.6822 73.7808 34.4595C73.7808 29.8514 75.153 23.289 82.8069 23.2824C89.3139 23.2759 92.503 32.0345 92.503 32.0345C92.503 32.0345 94.919 23.2759 101.626 23.2759C109.164 23.2824 110.265 29.6422 110.265 34.649Z" fill="white" stroke="#3F3F3F" stroke-width="2" stroke-miterlimit="10"/>
</g>
<defs>
<clipPath id="clip0_199_3153">
<rect width="120" height="120" fill="white"/>
</clipPath>
</defs>
</svg>
