<svg width="114" height="120" viewBox="0 0 114 120" fill="none" xmlns="http://www.w3.org/2000/svg">
<path d="M59.6118 111.353C88.4021 111.353 111.741 88.314 111.741 59.8941C111.741 31.4742 88.4021 8.4353 59.6118 8.4353C30.8216 8.4353 7.48242 31.4742 7.48242 59.8941C7.48242 88.314 30.8216 111.353 59.6118 111.353Z" fill="white" stroke="#3F3F3F" stroke-width="2" stroke-miterlimit="10" stroke-linecap="round" stroke-linejoin="round"/>
<path d="M19.9648 26.4942C28.2354 30.4824 40.9295 34.1295 59.6119 34.1295C78.306 34.1295 90.9884 30.4707 99.259 26.4824" fill="white"/>
<path d="M19.9648 26.4942C28.2354 30.4824 40.9295 34.1295 59.6119 34.1295C78.306 34.1295 90.9884 30.4707 99.259 26.4824" stroke="#3F3F3F" stroke-width="2" stroke-miterlimit="10" stroke-linecap="round" stroke-linejoin="round"/>
<path d="M59.6116 8.4353C25.0116 18.1765 25.0234 101.624 59.6116 111.353C94.2116 101.612 94.1998 18.1765 59.6116 8.4353Z" fill="white" stroke="#3F3F3F" stroke-width="2" stroke-miterlimit="10" stroke-linecap="round" stroke-linejoin="round"/>
<path d="M90.0825 59.894H111.741" stroke="#3F3F3F" stroke-width="2" stroke-miterlimit="10" stroke-linecap="round" stroke-linejoin="round"/>
<path d="M7.48242 59.894H79.6589" stroke="#3F3F3F" stroke-width="2" stroke-miterlimit="10" stroke-linecap="round" stroke-linejoin="round"/>
<path d="M99.259 93.2942C90.9884 89.306 78.2943 85.6589 59.6119 85.6589C40.9178 85.6589 28.2354 89.3178 19.9648 93.306" stroke="#3F3F3F" stroke-width="2" stroke-miterlimit="10" stroke-linecap="round" stroke-linejoin="round"/>
<path d="M76.0942 19.0236C75.8589 10.6707 68.9413 3.97656 60.4236 3.97656C53.2825 3.97656 47.2707 8.69421 45.3648 15.1413C39.6707 15.6589 35.2236 20.3766 35.2236 26.1295C35.2236 30.6942 38.0354 34.6119 42.0354 36.2942C41.7177 37.2942 41.553 38.353 41.553 39.4589C41.553 45.3766 46.4119 50.1648 52.4001 50.1648C55.8942 50.1648 58.9883 48.5295 60.9648 46.0119C63.0589 47.0354 65.4001 47.6236 67.8825 47.6236C76.5295 47.6236 83.5295 40.706 83.5295 32.1766C83.553 26.6119 80.5648 21.7413 76.0942 19.0236Z" fill="white" stroke="#3F3F3F" stroke-width="2" stroke-miterlimit="10" stroke-linecap="round" stroke-linejoin="round"/>
<path d="M28.2706 79.3882H21.2471L23.1177 27.0706H26.4L28.2706 79.3882Z" fill="white" stroke="#3F3F3F" stroke-width="2" stroke-miterlimit="10" stroke-linecap="round" stroke-linejoin="round"/>
<path d="M61.0234 59.2117V30.3176L69.7529 23.447" fill="white"/>
<path d="M61.0234 59.2117V30.3176L69.7529 23.447" stroke="#3F3F3F" stroke-width="2" stroke-miterlimit="10" stroke-linecap="round" stroke-linejoin="round"/>
<path d="M54.2588 16.7412L61.0353 23.4236V30.3177" fill="white"/>
<path d="M54.2588 16.7412L61.0353 23.4236V30.3177" stroke="#3F3F3F" stroke-width="2" stroke-miterlimit="10" stroke-linecap="round" stroke-linejoin="round"/>
<path d="M50.5884 30.3176L60.7884 40.3882" stroke="#3F3F3F" stroke-width="2" stroke-miterlimit="10" stroke-linecap="round" stroke-linejoin="round"/>
<path d="M47.7529 38.3059C47.3999 39.0118 46.9999 39.7059 46.5764 40.3765L24.7646 29.2706L2.94112 40.3647C2.51759 39.6941 2.12935 39 1.76465 38.2941L22.3882 25.2118L23.5176 1.78822C23.9294 1.76469 24.3411 1.75293 24.7646 1.75293C25.1882 1.75293 25.5882 1.76469 26.0117 1.78822L27.1411 25.2118L47.7529 38.3059Z" fill="white" stroke="#3F3F3F" stroke-width="2" stroke-miterlimit="10" stroke-linecap="round" stroke-linejoin="round"/>
<path d="M24.7528 30.8705C26.8775 30.8705 28.5999 29.1692 28.5999 27.0705C28.5999 24.9718 26.8775 23.2705 24.7528 23.2705C22.6281 23.2705 20.9058 24.9718 20.9058 27.0705C20.9058 29.1692 22.6281 30.8705 24.7528 30.8705Z" fill="white" stroke="#3F3F3F" stroke-width="2" stroke-miterlimit="10" stroke-linecap="round" stroke-linejoin="round"/>
<path d="M109.517 93.5177H66.0585C64.6821 93.5177 63.8821 91.9883 64.6821 90.8824L79.1879 70.8824L79.3762 48.2354H95.9291L96.3056 70.8706L110.823 91.0118C111.576 92.0589 110.823 93.5177 109.517 93.5177Z" fill="white" stroke="#3F3F3F" stroke-width="2" stroke-miterlimit="10"/>
<path d="M79.3057 62.0825H95.1763" stroke="#3F3F3F" stroke-width="2" stroke-miterlimit="10"/>
<path d="M81.223 86.0707C81.9637 86.0707 82.5642 85.4755 82.5642 84.7413C82.5642 84.0071 81.9637 83.4119 81.223 83.4119C80.4823 83.4119 79.8818 84.0071 79.8818 84.7413C79.8818 85.4755 80.4823 86.0707 81.223 86.0707Z" fill="white" stroke="#3F3F3F" stroke-width="2" stroke-miterlimit="10"/>
<path d="M90.529 79.6C92.0689 79.6 93.3172 78.3728 93.3172 76.8589C93.3172 75.3449 92.0689 74.1177 90.529 74.1177C88.9891 74.1177 87.7407 75.3449 87.7407 76.8589C87.7407 78.3728 88.9891 79.6 90.529 79.6Z" fill="white" stroke="#3F3F3F" stroke-width="2" stroke-miterlimit="10"/>
</svg>
