<svg width="180" height="210" viewBox="0 0 180 210" fill="none" xmlns="http://www.w3.org/2000/svg">
<g clip-path="url(#clip0_293_4177)">
<path d="M163.3 163.26L131.43 152.13L89.5698 163.85L47.7098 152.13L15.8398 163.26C7.4998 166.67 2.0498 174.78 2.0498 183.79V207.04H177.09V183.79C177.09 174.78 171.64 166.67 163.3 163.26Z" fill="white" stroke="#E9F4FF" stroke-width="4.1" stroke-miterlimit="10"/>
<path d="M115.02 128.64H64.1201V161.22H115.02V128.64Z" fill="white" stroke="#E9F4FF" stroke-width="4.1" stroke-miterlimit="10"/>
<path d="M90.4402 2.04999C26.9802 2.04999 37.5702 58.38 40.4802 89.43H140.4C143.31 58.38 146.2 2.04999 90.4402 2.04999Z" fill="white" stroke="#E9F4FF" stroke-width="4.1" stroke-miterlimit="10"/>
<path d="M45.2295 71.54V102.05C45.2295 108.69 47.9895 115.03 52.8495 119.55L70.9995 136.46C74.4395 139.66 78.9595 141.44 83.6495 141.44H95.4895C100.189 141.44 104.699 139.66 108.139 136.46L126.289 119.55C131.149 115.02 133.91 108.69 133.91 102.05V71.54C133.91 10.66 45.2295 12.25 45.2295 71.54Z" fill="white" stroke="#E9F4FF" stroke-width="4.1" stroke-miterlimit="10"/>
<path d="M96.7997 177.83H82.3397L78.9297 161.51H100.21L96.7997 177.83Z" fill="white" stroke="#E9F4FF" stroke-width="4.1" stroke-miterlimit="10"/>
<path d="M98.5099 207.04H80.6299L82.3399 177.83H96.7999L98.5099 207.04Z" fill="white" stroke="#E9F4FF" stroke-width="4.1" stroke-miterlimit="10"/>
<path d="M94.3193 26.47C100.739 48.16 124.709 66.22 141.659 62.57C141.659 62.57 141.019 29.44 125.129 13.84" fill="white"/>
<path d="M94.3193 26.47C100.739 48.16 124.709 66.22 141.659 62.57C141.659 62.57 141.019 29.44 125.129 13.84" stroke="#E9F4FF" stroke-width="4.1" stroke-miterlimit="10"/>
<path d="M133.91 100.18C140.36 100.18 142.54 92.94 142.54 90.31C147.73 78.19 141.61 65.88 133.91 71.54V100.18Z" fill="white" stroke="#E9F4FF" stroke-width="4.1" stroke-miterlimit="10"/>
<path d="M45.2295 100.18C38.7795 100.18 36.5995 92.94 36.5995 90.31C31.4095 78.19 37.5295 65.88 45.2295 71.54V100.18Z" fill="white" stroke="#E9F4FF" stroke-width="4.1" stroke-miterlimit="10"/>
<path d="M137.54 83.29C137.54 83.29 139.45 120.63 96.7402 116.39" stroke="#E9F4FF" stroke-width="4.1" stroke-miterlimit="10"/>
<path d="M100.98 116.9C100.98 118.03 99.08 118.95 96.74 118.95C94.4 118.95 92.5 118.03 92.5 116.9C92.5 115.77 94.4 114.85 96.74 114.85C99.08 114.85 100.98 115.77 100.98 116.9Z" fill="white" stroke="#E9F4FF" stroke-width="4.1" stroke-miterlimit="10"/>
<path d="M55.9303 134.8L41.0303 151.59L73.0603 178.56L89.5703 160.75L55.9303 134.8Z" fill="white" stroke="#E9F4FF" stroke-width="4.1" stroke-miterlimit="10"/>
<path d="M123.21 134.8L138.11 151.59L106.08 178.56L89.5703 160.75L123.21 134.8Z" fill="white" stroke="#E9F4FF" stroke-width="4.1" stroke-miterlimit="10"/>
<path d="M112.41 25.26C103.46 55.52 67.6298 69.62 43.9898 64.54C43.9898 64.54 41.5298 26.47 65.5998 20.67" fill="white"/>
<path d="M112.41 25.26C103.46 55.52 67.6298 69.62 43.9898 64.54C43.9898 64.54 41.5298 26.47 65.5998 20.67" stroke="#E9F4FF" stroke-width="4.1" stroke-miterlimit="10"/>
</g>
<defs>
<clipPath id="clip0_293_4177">
<rect width="179.14" height="209.09" fill="white"/>
</clipPath>
</defs>
</svg>
