<svg width="9" height="16" viewBox="0 0 9 16" fill="none" xmlns="http://www.w3.org/2000/svg">
<path fill-rule="evenodd" clip-rule="evenodd" d="M7.44695 15.8155L0.20395 8.55951C0.138753 8.49721 0.0870154 8.42221 0.0519292 8.33914C0.0168429 8.25607 -0.000847911 8.16669 -5.08057e-05 8.07651C-0.000451976 7.98432 0.0173634 7.89295 0.0523717 7.80766C0.0873801 7.72237 0.138892 7.64484 0.20395 7.57951C2.82395 5.02351 5.34895 2.55651 7.77895 0.178512C7.90395 0.0615115 8.40395 -0.229488 8.78995 0.202512C9.17595 0.635512 8.94195 1.01251 8.78995 1.16851L1.72195 8.07651L8.46895 14.8355C8.71495 15.1748 8.69495 15.4878 8.40895 15.7745C8.12228 16.0612 7.80162 16.0755 7.44695 15.8155Z" fill="white"/>
</svg>
