<svg width="43" height="50" viewBox="0 0 43 50" fill="none" xmlns="http://www.w3.org/2000/svg">
<path d="M32.4035 1.09639L41.7944 9.66247V48.8977H4.41322V1.09639H32.4035ZM32.9019 0H3.20801V50H42.9997V9.21084L32.9019 0Z" fill="#D3132F"/>
<path d="M34.2085 2.87319L39.8535 8.02234H34.2085V2.87319ZM32.9023 0V9.21084H43.0001L32.9023 0Z" fill="#D3132F"/>
<path d="M36.3774 22.8223H28.2275V29.567H36.3774V22.8223Z" fill="#D3132F"/>
<path d="M26.7594 22.8223H9.83105V24.8338H26.7594V22.8223Z" fill="#D3132F"/>
<path d="M26.7594 27.5554H9.83105V29.5669H26.7594V27.5554Z" fill="#D3132F"/>
<path d="M36.3816 32.1045H9.83105V34.116H36.3816V32.1045Z" fill="#D3132F"/>
<path d="M36.3816 36.9506H9.83105V38.9621H36.3816V36.9506Z" fill="#D3132F"/>
<path d="M36.3816 42.0255H9.83105V44.037H36.3816V42.0255Z" fill="#D3132F"/>
<path d="M29.3388 7.31824H0V18.5465H29.3388V7.31824Z" fill="#D3132F"/>
<path d="M5.41699 16.4816V9.47543L5.52774 9.4576C6.10755 9.36252 6.82416 9.31201 7.65478 9.31201C8.67759 9.31201 9.45283 9.51108 9.96424 9.90032C10.4626 10.2747 10.7493 10.863 10.7493 11.5137C10.7493 12.203 10.5115 12.7735 10.0587 13.1627C9.50821 13.6649 8.65153 13.9293 7.58312 13.9293C7.36488 13.9293 7.18898 13.9234 7.04566 13.9085V16.4786H5.41699V16.4816ZM7.05218 12.6814C7.20853 12.7052 7.40071 12.7081 7.58964 12.7081C8.55707 12.7081 9.11081 12.2922 9.11081 11.5672C9.11081 10.652 8.23459 10.5154 7.71342 10.5154C7.3942 10.5154 7.17596 10.5362 7.05543 10.554V12.6814H7.05218Z" fill="white"/>
<path d="M7.65455 9.4337C8.66106 9.4337 9.40048 9.62684 9.87931 9.99527C10.3256 10.331 10.6187 10.8718 10.6187 11.5165C10.6187 12.1702 10.394 12.711 9.97051 13.0764C9.42328 13.5756 8.56009 13.8103 7.5894 13.8103C7.33207 13.8103 7.09754 13.8014 6.91839 13.7687V16.3597H5.55356V9.57632C6.04542 9.4961 6.7262 9.4337 7.65455 9.4337ZM7.58614 12.8328C8.61546 12.8328 9.24087 12.3752 9.24087 11.5671C9.24087 10.8034 8.66106 10.3934 7.70992 10.3934C7.32881 10.3934 7.06171 10.4231 6.91513 10.4558V12.7823C7.08451 12.8209 7.30601 12.8328 7.58614 12.8328ZM7.65455 9.19006C6.81741 9.19006 6.09428 9.24057 5.5047 9.33565L5.2832 9.37131V9.57632V16.3597V16.6033H5.55031H6.91513H7.18223V16.3597V14.0451C7.2995 14.051 7.43305 14.057 7.58614 14.057C8.69038 14.057 9.57963 13.7777 10.1594 13.2517C10.6318 12.8417 10.8858 12.2415 10.8858 11.5195C10.8858 10.8332 10.5796 10.2092 10.0487 9.81105C9.51449 9.39805 8.70667 9.19006 7.65455 9.19006ZM7.18549 10.6638C7.30601 10.6519 7.48191 10.64 7.70992 10.64C8.28647 10.64 8.97377 10.8005 8.97377 11.5671C8.97377 12.4555 8.10406 12.5862 7.58614 12.5862C7.45259 12.5862 7.30927 12.5832 7.18223 12.5743V10.6638H7.18549Z" fill="#D3132F"/>
<path d="M13.6592 16.5529C12.9556 16.5529 12.3237 16.5232 11.7862 16.4608L11.6689 16.446V9.47543L11.7797 9.4576C12.3921 9.36549 13.1771 9.31201 13.9947 9.31201C15.4149 9.31201 16.4214 9.57348 17.1543 10.135C17.9654 10.7382 18.3758 11.6207 18.3758 12.7586C18.3758 13.9471 17.9556 14.9247 17.1576 15.5813C16.3953 16.2172 15.1836 16.5529 13.6592 16.5529ZM13.3139 15.2931C13.4865 15.308 13.7178 15.308 13.9393 15.308C14.8253 15.308 15.4898 15.097 15.9491 14.6781C16.4181 14.2502 16.6559 13.6173 16.6559 12.7973C16.6624 12.0842 16.4507 11.5256 16.0273 11.1364C15.5908 10.7352 14.9491 10.5332 14.1185 10.5332C13.7211 10.5332 13.4637 10.5599 13.3139 10.5837V15.2931Z" fill="white"/>
<path d="M13.9935 9.4337C15.4039 9.4337 16.3746 9.69815 17.0684 10.23C17.7948 10.7708 18.241 11.5879 18.241 12.7615C18.241 13.9856 17.7818 14.9038 17.0684 15.495C16.3192 16.116 15.1238 16.4339 13.658 16.4339C12.8534 16.4339 12.2508 16.3923 11.8013 16.3418V9.57632C12.4039 9.48719 13.1759 9.4337 13.9935 9.4337ZM13.9674 15.4326C15.7394 15.4326 16.7883 14.5353 16.7883 12.8001C16.798 11.2788 15.8371 10.4142 14.1172 10.4142C13.6808 10.4142 13.3681 10.4439 13.1791 10.4855V15.4029C13.3681 15.4326 13.6612 15.4326 13.9381 15.4326C13.9479 15.4326 13.9576 15.4326 13.9674 15.4326ZM13.9935 9.19006C13.1694 9.19006 12.3778 9.24057 11.7589 9.33565L11.5342 9.36834V9.57632V16.3389V16.5558L11.7687 16.5825C12.3127 16.6449 12.9479 16.6776 13.658 16.6776C15.2182 16.6776 16.4593 16.3299 17.2476 15.6763C18.0717 14.9929 18.5081 13.9856 18.5081 12.7615C18.5081 11.5849 18.0814 10.6697 17.2345 10.0428C16.4788 9.46045 15.4495 9.19006 13.9935 9.19006ZM13.4462 10.6905C13.5961 10.6727 13.8111 10.6579 14.1172 10.6579C14.912 10.6579 15.5212 10.848 15.9316 11.2254C16.329 11.5908 16.5277 12.1197 16.5212 12.7971C16.5212 14.36 15.6384 15.186 13.9674 15.186H13.9381C13.772 15.186 13.5961 15.186 13.4462 15.1801V10.6905Z" fill="#D3132F"/>
<path d="M19.3027 16.4816V9.36255H23.9216V10.6402H20.9477V12.2922H23.7197V13.5669H20.9477V16.4816H19.3027Z" fill="white"/>
<path d="M23.7888 9.48721V10.5182H20.8149V12.4139H23.5869V13.4449H20.8149V16.3627H19.4403V9.48721H23.7888ZM24.0559 9.2406H23.7888H19.437H19.1699V9.48424V16.3597V16.6033H19.437H20.8116H21.0787V16.3597V13.6885H23.5836H23.8507V13.4449V12.4139V12.1702H23.5836H21.0787V10.7619H23.7856H24.0527V10.5182V9.48721V9.2406H24.0559Z" fill="#D3132F"/>
</svg>
