<svg width="9" height="16" viewBox="0 0 9 16" fill="none" xmlns="http://www.w3.org/2000/svg">
<path fill-rule="evenodd" clip-rule="evenodd" d="M1.55354 0.158121L8.79654 7.41412C8.86174 7.47642 8.91347 7.55142 8.94856 7.63449C8.98365 7.71757 9.00134 7.80695 9.00054 7.89712C9.00094 7.98932 8.98313 8.08068 8.94812 8.16597C8.91311 8.25126 8.8616 8.3288 8.79654 8.39412C6.17654 10.9501 3.65154 13.4171 1.22154 15.7951C1.09654 15.9121 0.59654 16.2031 0.21054 15.7711C-0.17546 15.3381 0.0585399 14.9611 0.21054 14.8051L7.27854 7.89712L0.53154 1.13812C0.28554 0.798787 0.30554 0.485787 0.59154 0.199121C0.878207 -0.0875461 1.19887 -0.101879 1.55354 0.158121Z" fill="white"/>
</svg>
