<svg width="16" height="16" viewBox="0 0 16 16" fill="none" xmlns="http://www.w3.org/2000/svg">
<g clip-path="url(#clip0_199_3266)">
<path fill-rule="evenodd" clip-rule="evenodd" d="M4.55305 0.158121L11.7961 7.41412C11.8612 7.47642 11.913 7.55142 11.9481 7.63449C11.9832 7.71757 12.0008 7.80695 12.0001 7.89712C12.0005 7.98932 11.9826 8.08068 11.9476 8.16597C11.9126 8.25126 11.8611 8.3288 11.7961 8.39412C9.17605 10.9501 6.65105 13.4171 4.22105 15.7951C4.09605 15.9121 3.59605 16.2031 3.21005 15.7711C2.82405 15.3381 3.05805 14.9611 3.21005 14.8051L10.2781 7.89712L3.53105 1.13812C3.28505 0.798787 3.30505 0.485787 3.59105 0.199121C3.87772 -0.0875461 4.19838 -0.101879 4.55305 0.158121Z" fill="black"/>
</g>
<defs>
<clipPath id="clip0_199_3266">
<rect width="16" height="16" fill="white"/>
</clipPath>
</defs>
</svg>
