<svg width="16" height="16" viewBox="0 0 16 16" fill="none" xmlns="http://www.w3.org/2000/svg">
<g clip-path="url(#clip0_181_1564)">
<path fill-rule="evenodd" clip-rule="evenodd" d="M4.55299 0.158121L11.796 7.41412C11.8612 7.47642 11.9129 7.55142 11.948 7.63449C11.9831 7.71757 12.0008 7.80695 12 7.89712C12.0004 7.98932 11.9826 8.08068 11.9476 8.16597C11.9126 8.25126 11.861 8.3288 11.796 8.39412C9.17599 10.9501 6.65099 13.4171 4.22099 15.7951C4.09599 15.9121 3.59599 16.2031 3.20999 15.7711C2.82399 15.3381 3.05799 14.9611 3.20999 14.8051L10.278 7.89712L3.53099 1.13812C3.28499 0.798787 3.30499 0.485787 3.59099 0.199121C3.87766 -0.0875461 4.19832 -0.101879 4.55299 0.158121Z" fill="#368BDC"/>
</g>
<defs>
<clipPath id="clip0_181_1564">
<rect width="16" height="16" fill="white"/>
</clipPath>
</defs>
</svg>
