<svg width="120" height="120" viewBox="0 0 120 120" fill="none" xmlns="http://www.w3.org/2000/svg">
<g clip-path="url(#clip0_199_2825)">
<path d="M46.3398 0.865479H13.4575V40.3097H46.3398V0.865479Z" fill="white" stroke="#3F3F3F" stroke-width="2" stroke-miterlimit="10" stroke-linecap="round" stroke-linejoin="round"/>
<path d="M30.9594 12.0982C32.2015 12.0982 33.2084 11.1374 33.2084 9.95206C33.2084 8.76677 32.2015 7.80591 30.9594 7.80591C29.7174 7.80591 28.7104 8.76677 28.7104 9.95206C28.7104 11.1374 29.7174 12.0982 30.9594 12.0982Z" fill="white" stroke="#3F3F3F" stroke-width="2" stroke-miterlimit="10" stroke-linecap="round" stroke-linejoin="round"/>
<path d="M38.0634 17.3654C38.5175 17.3654 38.8856 17.0141 38.8856 16.5808C38.8856 16.1474 38.5175 15.7961 38.0634 15.7961C37.6093 15.7961 37.2412 16.1474 37.2412 16.5808C37.2412 17.0141 37.6093 17.3654 38.0634 17.3654Z" fill="white" stroke="#3F3F3F" stroke-width="2" stroke-miterlimit="10" stroke-linecap="round" stroke-linejoin="round"/>
<path d="M25.0894 28.725C28.3281 28.725 30.9536 26.2195 30.9536 23.1289C30.9536 20.0382 28.3281 17.5327 25.0894 17.5327C21.8506 17.5327 19.2251 20.0382 19.2251 23.1289C19.2251 26.2195 21.8506 28.725 25.0894 28.725Z" fill="white" stroke="#3F3F3F" stroke-width="2" stroke-miterlimit="10" stroke-linecap="round" stroke-linejoin="round"/>
<path d="M109.623 43.6464L109.623 3.51562L71.1964 3.51562V43.6464L109.623 43.6464Z" fill="white" stroke="#3F3F3F" stroke-width="2" stroke-miterlimit="10" stroke-linecap="round" stroke-linejoin="round"/>
<path d="M111.736 24.3346H69.1562C67.7053 24.3346 66.5264 23.2096 66.5264 21.825V21.3692C66.5264 19.9846 67.7053 18.8596 69.1562 18.8596H111.736C113.187 18.8596 114.366 19.9846 114.366 21.3692V21.825C114.366 23.2096 113.187 24.3346 111.736 24.3346Z" fill="white" stroke="#3F3F3F" stroke-width="2" stroke-miterlimit="10" stroke-linecap="round" stroke-linejoin="round"/>
<path d="M6.89209 36.9059L18.929 49.1251V66.9462H40.8686V49.1251L52.9055 36.9059C52.174 35.2962 52.1075 35.1462 51.3759 33.5366H8.42164C7.69012 35.1462 7.62361 35.2962 6.89209 36.9059Z" fill="white" stroke="#3F3F3F" stroke-width="2" stroke-miterlimit="10" stroke-linecap="round" stroke-linejoin="round"/>
<path d="M119.093 94.8232H62.7051V105.698H119.093V94.8232Z" fill="white" stroke="#3F3F3F" stroke-width="2" stroke-miterlimit="10" stroke-linecap="round" stroke-linejoin="round"/>
<path d="M113.61 119.135V105.698" stroke="#3F3F3F" stroke-width="2" stroke-miterlimit="10" stroke-linecap="round" stroke-linejoin="round"/>
<path d="M111.935 43.6443H68.9507V94.8231H111.935V43.6443Z" fill="white" stroke="#3F3F3F" stroke-width="2" stroke-miterlimit="10" stroke-linecap="round" stroke-linejoin="round"/>
<path d="M111.935 43.731H68.9507V53.6656H111.935V43.731Z" fill="white" stroke="#3F3F3F" stroke-width="2" stroke-miterlimit="10" stroke-linecap="round" stroke-linejoin="round"/>
<path d="M74.918 48.6982H75.2444" stroke="#3F3F3F" stroke-width="2" stroke-miterlimit="10" stroke-linecap="round" stroke-linejoin="round"/>
<path d="M80.2261 48.6982H80.5525" stroke="#3F3F3F" stroke-width="2" stroke-miterlimit="10" stroke-linecap="round" stroke-linejoin="round"/>
<path d="M85.5342 48.6982H85.8667" stroke="#3F3F3F" stroke-width="2" stroke-miterlimit="10" stroke-linecap="round" stroke-linejoin="round"/>
<path d="M105.152 64.05H75.7397V86.5154H105.152V64.05Z" fill="white" stroke="#3F3F3F" stroke-width="2" stroke-miterlimit="10" stroke-linecap="round" stroke-linejoin="round"/>
<path d="M9.65479 116.031V118.881" stroke="#3F3F3F" stroke-width="2" stroke-miterlimit="10" stroke-linecap="round" stroke-linejoin="round"/>
<path d="M53.7456 116.031V118.881" stroke="#3F3F3F" stroke-width="2" stroke-miterlimit="10" stroke-linecap="round" stroke-linejoin="round"/>
<path d="M61.2846 114.842H2.11587C1.45085 114.842 0.906738 114.323 0.906738 113.688V58.4827C0.906738 57.8481 1.45085 57.3289 2.11587 57.3289H61.2846C61.9496 57.3289 62.4937 57.8481 62.4937 58.4827V113.688C62.4937 114.323 61.9496 114.842 61.2846 114.842Z" fill="white" stroke="#3F3F3F" stroke-width="2" stroke-miterlimit="10" stroke-linecap="round" stroke-linejoin="round"/>
<path d="M53.5341 66.45H9.65479V87.0346H53.5341V66.45Z" fill="white" stroke="#3F3F3F" stroke-width="2" stroke-miterlimit="10" stroke-linecap="round" stroke-linejoin="round"/>
<path d="M9.65479 92.4751V100.5" stroke="#3F3F3F" stroke-width="2" stroke-miterlimit="10" stroke-linecap="round" stroke-linejoin="round"/>
<path d="M19.0376 92.4751V100.5" stroke="#3F3F3F" stroke-width="2" stroke-miterlimit="10" stroke-linecap="round" stroke-linejoin="round"/>
<path d="M28.4263 92.4751V100.5" stroke="#3F3F3F" stroke-width="2" stroke-miterlimit="10" stroke-linecap="round" stroke-linejoin="round"/>
<path d="M37.8096 92.4751V100.5" stroke="#3F3F3F" stroke-width="2" stroke-miterlimit="10" stroke-linecap="round" stroke-linejoin="round"/>
<path d="M28.4263 94.8232H31.5942" stroke="#3F3F3F" stroke-width="2" stroke-miterlimit="10" stroke-linecap="round" stroke-linejoin="round"/>
<path d="M37.8096 100.5H40.9775" stroke="#3F3F3F" stroke-width="2" stroke-miterlimit="10" stroke-linecap="round" stroke-linejoin="round"/>
<path d="M19.0376 92.4751H22.2055" stroke="#3F3F3F" stroke-width="2" stroke-miterlimit="10" stroke-linecap="round" stroke-linejoin="round"/>
<path d="M9.65479 96.4846H12.8227" stroke="#3F3F3F" stroke-width="2" stroke-miterlimit="10" stroke-linecap="round" stroke-linejoin="round"/>
<path d="M50.0819 99.7789C48.1776 99.7789 46.6299 98.3077 46.6299 96.4847C46.6299 94.6616 48.1715 93.1904 50.0819 93.1904C51.9863 93.1904 53.534 94.6616 53.534 96.4847C53.534 98.3077 51.9863 99.7789 50.0819 99.7789Z" fill="white" stroke="#3F3F3F" stroke-width="2" stroke-miterlimit="10" stroke-linecap="round" stroke-linejoin="round"/>
<path d="M41.8235 52.9789H17.8525C16.4016 52.9789 15.2227 51.8539 15.2227 50.4693V50.0135C15.2227 48.6289 16.4016 47.5039 17.8525 47.5039H41.8235C43.2744 47.5039 44.4533 48.6289 44.4533 50.0135V50.4693C44.4533 51.8539 43.2744 52.9789 41.8235 52.9789Z" fill="white" stroke="#3F3F3F" stroke-width="2" stroke-miterlimit="10" stroke-linecap="round" stroke-linejoin="round"/>
<path d="M98.6104 48.6982H106.996" stroke="#3F3F3F" stroke-width="2" stroke-miterlimit="10" stroke-linecap="round" stroke-linejoin="round"/>
</g>
<defs>
<clipPath id="clip0_199_2825">
<rect width="120" height="120" fill="white"/>
</clipPath>
</defs>
</svg>
