<svg width="120" height="120" viewBox="0 0 120 120" fill="none" xmlns="http://www.w3.org/2000/svg">
<g clip-path="url(#clip0_199_2916)">
<path d="M47.5385 24.1386C47.5385 36.9924 37.0927 47.4174 24.2002 47.4174C11.3193 47.4174 0.867676 36.9924 0.867676 24.1386C0.867676 11.2847 11.3193 0.865479 24.2002 0.865479C37.0927 0.865479 47.5385 11.2847 47.5385 24.1386Z" fill="white" stroke="#3F3F3F" stroke-width="2" stroke-miterlimit="10"/>
<path d="M119.132 24.1386C119.132 36.9924 108.686 47.4174 95.7997 47.4174C82.9131 47.4174 72.4614 36.9924 72.4614 24.1386C72.4614 11.2847 82.9131 0.865479 95.7997 0.865479C108.686 0.865479 119.132 11.2847 119.132 24.1386Z" fill="white" stroke="#3F3F3F" stroke-width="2" stroke-miterlimit="10"/>
<path d="M47.5385 95.8616C47.5385 108.715 37.0927 119.135 24.2002 119.135C11.3135 119.135 0.867676 108.715 0.867676 95.8616C0.867676 83.0078 11.3193 72.5828 24.2002 72.5828C37.0927 72.5828 47.5385 83.0078 47.5385 95.8616Z" fill="white" stroke="#3F3F3F" stroke-width="2" stroke-miterlimit="10"/>
<path d="M119.132 95.8616C119.132 108.715 108.686 119.135 95.7997 119.135C82.9131 119.135 72.4614 108.715 72.4614 95.8616C72.4614 83.0078 82.9131 72.5828 95.7997 72.5828C108.686 72.5828 119.132 83.0078 119.132 95.8616Z" fill="white" stroke="#3F3F3F" stroke-width="2" stroke-miterlimit="10"/>
<path d="M51.6045 24.1387H67.5914" stroke="#3F3F3F" stroke-width="2" stroke-miterlimit="10"/>
<path d="M61.958 28.9444L67.5916 24.1386L61.958 19.3386" fill="white"/>
<path d="M61.958 28.9444L67.5916 24.1386L61.958 19.3386" stroke="#3F3F3F" stroke-width="2" stroke-miterlimit="10"/>
<path d="M67.5914 95.8616H51.6045" stroke="#3F3F3F" stroke-width="2" stroke-miterlimit="10"/>
<path d="M57.2323 91.0559L51.6045 95.8617L57.2323 100.662" fill="white"/>
<path d="M57.2323 91.0559L51.6045 95.8617L57.2323 100.662" stroke="#3F3F3F" stroke-width="2" stroke-miterlimit="10"/>
<path d="M95.7998 51.8193V67.7655" stroke="#3F3F3F" stroke-width="2" stroke-miterlimit="10"/>
<path d="M90.9819 62.1462L95.8 67.7655L100.612 62.1462" fill="white"/>
<path d="M90.9819 62.1462L95.8 67.7655L100.612 62.1462" stroke="#3F3F3F" stroke-width="2" stroke-miterlimit="10"/>
<path d="M24.2007 67.7655V51.8193" stroke="#3F3F3F" stroke-width="2" stroke-miterlimit="10"/>
<path d="M29.0185 57.4386L24.2004 51.8193L19.3882 57.4386" fill="white"/>
<path d="M29.0185 57.4386L24.2004 51.8193L19.3882 57.4386" stroke="#3F3F3F" stroke-width="2" stroke-miterlimit="10"/>
<path d="M86.9101 24.877C89.5998 24.877 91.7802 22.7021 91.7802 20.0193C91.7802 17.3365 89.5998 15.1616 86.9101 15.1616C84.2205 15.1616 82.04 17.3365 82.04 20.0193C82.04 22.7021 84.2205 24.877 86.9101 24.877Z" fill="white" stroke="#3F3F3F" stroke-width="2" stroke-miterlimit="10"/>
<path d="M107.397 27.3233C109.694 27.3233 111.556 25.4661 111.556 23.1752C111.556 20.8843 109.694 19.0271 107.397 19.0271C105.1 19.0271 103.238 20.8843 103.238 23.1752C103.238 25.4661 105.1 27.3233 107.397 27.3233Z" fill="white" stroke="#3F3F3F" stroke-width="2" stroke-miterlimit="10"/>
<path d="M100.439 36.3289C101.771 36.3289 102.851 35.2518 102.851 33.9231C102.851 32.5944 101.771 31.5173 100.439 31.5173C99.1067 31.5173 98.0269 32.5944 98.0269 33.9231C98.0269 35.2518 99.1067 36.3289 100.439 36.3289Z" fill="white" stroke="#3F3F3F" stroke-width="2" stroke-miterlimit="10"/>
<path d="M91.2886 22.5579L98.1946 25.8521" stroke="#3F3F3F" stroke-width="2" stroke-miterlimit="10"/>
<path d="M103.626 24.2654L98.189 25.8461" stroke="#3F3F3F" stroke-width="2" stroke-miterlimit="10"/>
<path d="M99.8721 31.8808L98.189 25.8462" stroke="#3F3F3F" stroke-width="2" stroke-miterlimit="10"/>
<path d="M28.0984 94.0618H20.3652V100.708H28.0984V94.0618Z" fill="white" stroke="#3F3F3F" stroke-miterlimit="10"/>
<path d="M22.5459 95.7117H25.8601" stroke="#3F3F3F" stroke-miterlimit="10"/>
<path d="M21.5454 97.3906H23.5814" stroke="#3F3F3F" stroke-miterlimit="10"/>
<path d="M21.5454 98.9194H23.5814" stroke="#3F3F3F" stroke-miterlimit="10"/>
<path d="M26.4907 97.3906H24.9521V98.9252H26.4907V97.3906Z" fill="white" stroke="#3F3F3F" stroke-miterlimit="10"/>
<path d="M27.7514 112.979H20.8222C18.8557 112.979 17.2593 111.387 17.2593 109.425V91.5925C17.2593 89.631 19.301 86.031 21.2676 86.031H27.8382C29.8047 86.031 31.3085 89.631 31.3085 91.5925V109.425C31.3143 111.393 29.7179 112.979 27.7514 112.979Z" stroke="#3F3F3F" stroke-width="2" stroke-miterlimit="10"/>
<path d="M26.7047 81.981H22.147V86.0367H26.7047V81.981Z" stroke="#3F3F3F" stroke-width="2" stroke-miterlimit="10"/>
<path d="M34.8256 12.3115H13.5811V35.9769H34.8256V12.3115Z" stroke="#3F3F3F" stroke-width="2" stroke-miterlimit="10"/>
<path d="M17.439 17.1116H23.4254" stroke="#3F3F3F" stroke-width="2" stroke-miterlimit="10"/>
<path d="M17.439 21.7615H31.1528" stroke="#3F3F3F" stroke-width="2" stroke-miterlimit="10"/>
<path d="M17.439 26.7749H31.1528" stroke="#3F3F3F" stroke-width="2" stroke-miterlimit="10"/>
<path d="M106.975 108.225H84.6659C83.9603 108.225 83.5496 107.429 83.9603 106.858L91.4042 96.4791L91.4968 84.7329H99.9992L100.19 96.4791L107.646 106.921C108.033 107.469 107.646 108.225 106.975 108.225Z" stroke="#3F3F3F" stroke-width="2" stroke-miterlimit="10"/>
<path d="M91.4619 91.9155H99.6115" stroke="#3F3F3F" stroke-width="2" stroke-miterlimit="10"/>
<path d="M92.451 104.36C92.8311 104.36 93.1393 104.053 93.1393 103.673C93.1393 103.294 92.8311 102.987 92.451 102.987C92.0709 102.987 91.7627 103.294 91.7627 103.673C91.7627 104.053 92.0709 104.36 92.451 104.36Z" stroke="#3F3F3F" stroke-width="2" stroke-miterlimit="10"/>
<path d="M97.2289 101.014C98.018 101.014 98.6576 100.376 98.6576 99.5886C98.6576 98.8016 98.018 98.1636 97.2289 98.1636C96.4399 98.1636 95.8003 98.8016 95.8003 99.5886C95.8003 100.376 96.4399 101.014 97.2289 101.014Z" stroke="#3F3F3F" stroke-width="2" stroke-miterlimit="10"/>
</g>
<defs>
<clipPath id="clip0_199_2916">
<rect width="120" height="120" fill="white"/>
</clipPath>
</defs>
</svg>
