<svg width="120" height="120" viewBox="0 0 120 120" fill="none" xmlns="http://www.w3.org/2000/svg">
<g clip-path="url(#clip0_199_2876)">
<path d="M0.865234 119.09H119.134" stroke="#3F3F3F" stroke-width="2" stroke-miterlimit="10" stroke-linecap="round" stroke-linejoin="round"/>
<path d="M79.3442 113.056H98.4577" stroke="#3F3F3F" stroke-width="2" stroke-miterlimit="10" stroke-linecap="round" stroke-linejoin="round"/>
<path d="M65.0824 30.1698V23.214C65.0824 18.8963 61.7478 15.3911 57.6401 15.3911C53.5324 15.3911 50.1978 18.8963 50.1978 23.214V60.6307" fill="white"/>
<path d="M65.0824 30.1698V23.214C65.0824 18.8963 61.7478 15.3911 57.6401 15.3911C53.5324 15.3911 50.1978 18.8963 50.1978 23.214V60.6307" stroke="#3F3F3F" stroke-width="2" stroke-miterlimit="10" stroke-linecap="round" stroke-linejoin="round"/>
<path d="M103.829 62.9412H47.8843V119.09H116.279" fill="white"/>
<path d="M103.829 62.9412H47.8843V119.09H116.279" stroke="#3F3F3F" stroke-width="2" stroke-miterlimit="10" stroke-linecap="round" stroke-linejoin="round"/>
<path d="M116.279 119.09V49.7332" stroke="#3F3F3F" stroke-width="2" stroke-miterlimit="10" stroke-linecap="round" stroke-linejoin="round"/>
<path d="M103.829 49.7332H116.279" stroke="#3F3F3F" stroke-width="2" stroke-miterlimit="10" stroke-linecap="round" stroke-linejoin="round"/>
<path d="M103.829 62.9412V49.7332" stroke="#3F3F3F" stroke-width="2" stroke-miterlimit="10" stroke-linecap="round" stroke-linejoin="round"/>
<path d="M80.4921 62.9411H68.2383L70.2691 15.3911H78.4556L80.4921 62.9411Z" fill="white" stroke="#3F3F3F" stroke-width="2" stroke-miterlimit="10" stroke-linecap="round" stroke-linejoin="round"/>
<path d="M97.8861 62.9412H84.3804L86.6188 0.909668H95.6419L97.8861 62.9412Z" fill="white" stroke="#3F3F3F" stroke-width="2" stroke-miterlimit="10" stroke-linecap="round" stroke-linejoin="round"/>
<path d="M65.0824 30.1699C60.5881 30.1699 56.9478 33.9965 56.9478 38.7206V62.9413H73.2112V38.7206C73.217 33.9965 69.5766 30.1699 65.0824 30.1699Z" fill="white" stroke="#3F3F3F" stroke-width="2" stroke-miterlimit="10" stroke-linecap="round" stroke-linejoin="round"/>
<path d="M28.9095 78.0898H24.6172V119.09H28.9095V78.0898Z" fill="white" stroke="#3F3F3F" stroke-width="2" stroke-miterlimit="10" stroke-linecap="round" stroke-linejoin="round"/>
<path d="M47.8846 78.0898H43.5923V119.09H47.8846V78.0898Z" fill="white" stroke="#3F3F3F" stroke-width="2" stroke-miterlimit="10" stroke-linecap="round" stroke-linejoin="round"/>
<path d="M11.0594 78.0898H6.76709V119.09H11.0594V78.0898Z" fill="white" stroke="#3F3F3F" stroke-width="2" stroke-miterlimit="10" stroke-linecap="round" stroke-linejoin="round"/>
<path d="M65.1575 78.0898H60.8652V119.09H65.1575V78.0898Z" fill="white" stroke="#3F3F3F" stroke-width="2" stroke-miterlimit="10" stroke-linecap="round" stroke-linejoin="round"/>
<path d="M42.9573 48.6599V42.3591H28.39V48.6599C15.6285 52.068 6.1958 64.2209 6.1958 78.6963C6.1958 95.8097 19.3958 109.685 35.6766 109.685C51.9573 109.685 65.1573 95.8097 65.1573 78.6963C65.1573 64.2209 55.7189 52.068 42.9573 48.6599Z" fill="white" stroke="#3F3F3F" stroke-width="2" stroke-miterlimit="10" stroke-linecap="round" stroke-linejoin="round"/>
<path d="M66.2306 94.3361H5.11712C4.02674 94.3361 3.14404 93.4082 3.14404 92.2621V87.9019C3.14404 86.7557 4.02674 85.8279 5.11712 85.8279H66.2306C67.321 85.8279 68.2037 86.7557 68.2037 87.9019V92.2621C68.2094 93.4022 67.321 94.3361 66.2306 94.3361Z" fill="white" stroke="#3F3F3F" stroke-width="2" stroke-miterlimit="10" stroke-linecap="round" stroke-linejoin="round"/>
<path d="M106.096 109.685H92.7173V119.09H106.096V109.685Z" fill="white" stroke="#3F3F3F" stroke-width="2" stroke-miterlimit="10" stroke-linecap="round" stroke-linejoin="round"/>
<path d="M87.2477 109.278H84.3804V113.535H87.2477V109.278Z" fill="white" stroke="#3F3F3F" stroke-width="2" stroke-miterlimit="10" stroke-linecap="round" stroke-linejoin="round"/>
<path d="M81.3981 109.278H78.5308V113.535H81.3981V109.278Z" fill="white" stroke="#3F3F3F" stroke-width="2" stroke-miterlimit="10" stroke-linecap="round" stroke-linejoin="round"/>
<path d="M75.5538 109.278H72.6865V113.535H75.5538V109.278Z" fill="white" stroke="#3F3F3F" stroke-width="2" stroke-miterlimit="10" stroke-linecap="round" stroke-linejoin="round"/>
<path d="M73.2173 73.208H91.2346" stroke="#3F3F3F" stroke-width="2" stroke-miterlimit="10" stroke-linecap="round" stroke-linejoin="round"/>
<path d="M85.8115 83.4446H103.829" stroke="#3F3F3F" stroke-width="2" stroke-miterlimit="10" stroke-linecap="round" stroke-linejoin="round"/>
<path d="M73.3959 43.4202H56.769C55.6786 43.4202 54.7959 42.4923 54.7959 41.3462C54.7959 40.2001 55.6786 39.2722 56.769 39.2722H73.4017C74.4921 39.2722 75.3747 40.2001 75.3747 41.3462C75.3747 42.4923 74.4863 43.4202 73.3959 43.4202Z" fill="white" stroke="#3F3F3F" stroke-width="2" stroke-miterlimit="10" stroke-linecap="round" stroke-linejoin="round"/>
<path d="M30.6865 74.8333L25.4653 62.1953" stroke="#3F3F3F" stroke-width="2" stroke-miterlimit="10" stroke-linecap="round" stroke-linejoin="round"/>
<path d="M41.3538 74.6695L36.0923 62.9412" stroke="#3F3F3F" stroke-width="2" stroke-miterlimit="10" stroke-linecap="round" stroke-linejoin="round"/>
<path d="M41.3535 74.6694L46.5747 62.0254" stroke="#3F3F3F" stroke-width="2" stroke-miterlimit="10" stroke-linecap="round" stroke-linejoin="round"/>
<path d="M30.7671 74.6695L36.0921 62.9412" stroke="#3F3F3F" stroke-width="2" stroke-miterlimit="10" stroke-linecap="round" stroke-linejoin="round"/>
<path d="M43.8231 43.4202H27.1904C26.1 43.4202 25.2173 42.4923 25.2173 41.3462C25.2173 40.2001 26.1 39.2722 27.1904 39.2722H43.8231C44.9134 39.2722 45.7961 40.2001 45.7961 41.3462C45.7961 42.4923 44.9134 43.4202 43.8231 43.4202Z" fill="white" stroke="#3F3F3F" stroke-width="2" stroke-miterlimit="10" stroke-linecap="round" stroke-linejoin="round"/>
</g>
<defs>
<clipPath id="clip0_199_2876">
<rect width="120" height="120" fill="white"/>
</clipPath>
</defs>
</svg>
