<svg width="17" height="9" viewBox="0 0 17 9" fill="none" xmlns="http://www.w3.org/2000/svg">
<path fill-rule="evenodd" clip-rule="evenodd" d="M0.185037 7.44707L7.44104 0.204071C7.50334 0.138874 7.57834 0.0871365 7.66141 0.0520503C7.74448 0.016964 7.83386 -0.000726867 7.92404 7.02256e-05C8.01623 -0.000330957 8.1076 0.0174844 8.19289 0.0524927C8.27818 0.0875011 8.35571 0.139013 8.42104 0.204071C10.977 2.82407 13.444 5.34907 15.822 7.77907C15.939 7.90407 16.23 8.40407 15.798 8.79007C15.365 9.17607 14.988 8.94207 14.832 8.79007L7.92404 1.72207L1.16504 8.46907C0.825704 8.71507 0.512704 8.69507 0.226037 8.40907C-0.0606296 8.1224 -0.0749628 7.80174 0.185037 7.44707Z" fill="#368BDC"/>
</svg>
